<svg height="512" viewBox="0 0 512 512" width="512" xmlns="http://www.w3.org/2000/svg"><g><path d="m316 8h-120a28.031 28.031 0 0 0 -28 28v440a28.031 28.031 0 0 0 28 28h120a28.031 28.031 0 0 0 28-28v-440a28.031 28.031 0 0 0 -28-28zm-38.25 16-4 16h-35.5l-4-16zm-43.5 464 4-16h35.5l4 16zm93.75-12a12.01 12.01 0 0 1 -12 12h-21.75l-6.49-25.94a8 8 0 0 0 -7.76-6.06h-48a8 8 0 0 0 -7.76 6.06l-6.49 25.94h-21.75a12.01 12.01 0 0 1 -12-12v-440a12.01 12.01 0 0 1 12-12h21.75l6.49 25.94a8 8 0 0 0 7.76 6.06h48a8 8 0 0 0 7.76-6.06l6.49-25.94h21.75a12.01 12.01 0 0 1 12 12z"/><path d="m256 192a64 64 0 1 0 64 64 64.072 64.072 0 0 0 -64-64zm0 112a48 48 0 1 1 48-48 48.054 48.054 0 0 1 -48 48z"/><path d="m248 88h16a8 8 0 0 0 0-16h-16a8 8 0 0 0 0 16z"/><path d="m208 88h16a8 8 0 0 0 0-16h-16a8 8 0 0 0 0 16z"/><path d="m288 88h16a8 8 0 0 0 0-16h-16a8 8 0 0 0 0 16z"/><path d="m248 120h16a8 8 0 0 0 0-16h-16a8 8 0 0 0 0 16z"/><path d="m208 120h16a8 8 0 0 0 0-16h-16a8 8 0 0 0 0 16z"/><path d="m288 120h16a8 8 0 0 0 0-16h-16a8 8 0 0 0 0 16z"/><path d="m248 152h16a8 8 0 0 0 0-16h-16a8 8 0 0 0 0 16z"/><path d="m208 152h16a8 8 0 0 0 0-16h-16a8 8 0 0 0 0 16z"/><path d="m288 152h16a8 8 0 0 0 0-16h-16a8 8 0 0 0 0 16z"/><path d="m264 360h-16a8 8 0 0 0 0 16h16a8 8 0 0 0 0-16z"/><path d="m224 360h-16a8 8 0 0 0 0 16h16a8 8 0 0 0 0-16z"/><path d="m304 360h-16a8 8 0 0 0 0 16h16a8 8 0 0 0 0-16z"/><path d="m264 392h-16a8 8 0 0 0 0 16h16a8 8 0 0 0 0-16z"/><path d="m224 392h-16a8 8 0 0 0 0 16h16a8 8 0 0 0 0-16z"/><path d="m304 392h-16a8 8 0 0 0 0 16h16a8 8 0 0 0 0-16z"/><path d="m264 424h-16a8 8 0 0 0 0 16h16a8 8 0 0 0 0-16z"/><path d="m224 424h-16a8 8 0 0 0 0 16h16a8 8 0 0 0 0-16z"/><path d="m304 424h-16a8 8 0 0 0 0 16h16a8 8 0 0 0 0-16z"/><path d="m256 224a32 32 0 1 0 32 32 32.036 32.036 0 0 0 -32-32zm0 48a16 16 0 1 1 16-16 16.019 16.019 0 0 1 -16 16z"/></g></svg>